<svg width="26" height="26" viewBox="0 0 26 26" fill="none" xmlns="http://www.w3.org/2000/svg">
<path fill-rule="evenodd" clip-rule="evenodd" d="M22.3034 0.00187496H4.73103C3.49871 0.00194604 2.31502 0.416668 1.43155 1.15789C0.548087 1.8991 0.0345138 2.90837 0 3.97115V4.00865V21.9182V21.922C0.00115204 23.0039 0.500106 24.0411 1.38722 24.8058C2.27434 25.5705 3.47703 26 4.73103 26H22.2752H22.3034H22.3317H24.3701C24.8024 26 25.2169 25.8518 25.5226 25.5881C25.8283 25.3244 26 24.9667 26 24.5938C26 24.2208 25.8283 23.8632 25.5226 23.5994C25.2169 23.3357 24.8024 23.1876 24.3701 23.1876H23.9355V20.3208C24.5558 20.0582 25.0781 19.6506 25.4431 19.1444C25.8081 18.6382 26.0011 18.0538 26 17.4577V3.1893C26 2.77047 25.9044 2.35575 25.7186 1.96881C25.5328 1.58186 25.2605 1.23028 24.9173 0.934124C24.574 0.63797 24.1665 0.403048 23.718 0.242771C23.2695 0.0824936 22.7889 0 22.3034 0V0.00187496ZM3.69007 22.8145C3.4848 22.6368 3.34513 22.4107 3.28869 22.1647C3.23225 21.9186 3.26156 21.6637 3.37293 21.432C3.4843 21.2003 3.67273 21.0022 3.91444 20.8629C4.15615 20.7235 4.4403 20.649 4.73103 20.6489H20.6735V23.1876H4.73103C4.53724 23.1877 4.34533 23.1548 4.16632 23.0908C3.98731 23.0268 3.82472 22.9328 3.6879 22.8145H3.69007ZM16.7509 15.4909C15.9869 15.6461 15.1855 15.5877 14.4626 15.324C11.5387 13.8114 9.09201 11.7005 7.33885 9.1779C7.03553 8.5532 6.96931 7.86167 7.14968 7.20248C7.33005 6.5433 7.74775 5.95033 8.34286 5.50862L8.87746 5.04738C9.06442 4.84602 9.33439 4.71484 9.63088 4.68129C9.92738 4.64774 10.2274 4.71442 10.4682 4.86738L12.1981 6.35985C12.3754 6.56761 12.4527 6.82648 12.4138 7.08229C12.3749 7.3381 12.2229 7.57102 11.9895 7.73231C11.7564 7.89388 11.6048 8.12693 11.5663 8.38272C11.5278 8.63852 11.6055 8.89724 11.783 9.10478L14.5473 11.4897C14.7879 11.6429 15.0877 11.7099 15.3842 11.6767C15.6807 11.6435 15.9508 11.5127 16.1381 11.3116C16.3253 11.1105 16.5955 10.9797 16.8919 10.9465C17.1884 10.9133 17.4883 10.9803 17.7288 11.1335L19.4587 12.6241C19.636 12.8318 19.7133 13.0907 19.6744 13.3465C19.6355 13.6023 19.4835 13.8352 19.2501 13.9965L18.7155 14.4597C18.2048 14.9744 17.5175 15.3356 16.7531 15.4909H16.7509Z" fill="#39A452"/>
</svg>
