<svg width="26" height="23" viewBox="0 0 26 23" fill="none" xmlns="http://www.w3.org/2000/svg">
<path d="M25.48 13.6514V20.9314C25.48 21.9366 24.6652 22.7514 23.66 22.7514H1.82C0.814805 22.7514 0 21.9366 0 20.9314V13.6514C0 12.6462 0.814805 11.8313 1.82 11.8314H6.37C7.07052 11.8314 7.50834 12.5897 7.15808 13.1964C6.99552 13.4779 6.69511 13.6514 6.37 13.6514H1.82V20.9314H23.66V13.6514H19.11C18.4095 13.6514 17.9717 12.893 18.3219 12.2864C18.4845 12.0048 18.7849 11.8314 19.11 11.8314H23.66C24.6652 11.8313 25.48 12.6462 25.48 13.6514ZM12.0962 13.3852C12.4516 13.741 13.0284 13.741 13.3838 13.3852L18.8438 7.92518C19.3394 7.42957 19.1127 6.58329 18.4357 6.40188C18.1215 6.31768 17.7862 6.40751 17.5562 6.63753L13.65 10.5448V0.911358C13.65 0.210841 12.8917 -0.226985 12.285 0.123274C12.0034 0.285835 11.83 0.586246 11.83 0.911358V10.5448L7.92382 6.63753C7.42821 6.14192 6.58193 6.36868 6.40052 7.0457C6.31632 7.35991 6.40616 7.69516 6.63617 7.92518L12.0962 13.3852ZM20.93 17.2914C20.93 16.2406 19.7925 15.5838 18.8825 16.1092C17.9725 16.6346 17.9725 17.9481 18.8825 18.4735C19.09 18.5933 19.3254 18.6564 19.565 18.6564C20.3188 18.6563 20.93 18.0452 20.93 17.2914Z" fill="#39A452"/>
</svg>
