<svg width="13" height="13" viewBox="0 0 13 13" fill="none" xmlns="http://www.w3.org/2000/svg">
<path fill-rule="evenodd" clip-rule="evenodd" d="M12.7539 1.43377C13.082 1.10578 13.082 0.573991 12.7539 0.245996C12.426 -0.0819987 11.8942 -0.0819987 11.5663 0.245996L6.5 5.31223L1.43379 0.245996C1.10578 -0.0819987 0.57399 -0.0819987 0.245996 0.245996C-0.0819986 0.573991 -0.0819986 1.10578 0.245996 1.43377L5.31223 6.50001L0.245996 11.5662C-0.0819986 11.8943 -0.0819986 12.426 0.245996 12.7541C0.57399 13.082 1.10578 13.082 1.43379 12.7541L6.5 7.68779L11.5663 12.7541C11.8942 13.082 12.426 13.082 12.7539 12.7541C13.082 12.426 13.082 11.8943 12.7539 11.5662L7.68778 6.50001L12.7539 1.43377Z" fill="#FF0000"/>
</svg>
