<svg width="5" height="20" viewBox="0 0 5 20" fill="none" xmlns="http://www.w3.org/2000/svg">
<path d="M4.27479 -3.38554e-05L3.91471 13.24H0.535445L0.166127 -3.38554e-05H4.27479ZM2.22508 19.1491C1.6157 19.1491 1.0925 18.9337 0.655473 18.5028C0.218447 18.0658 0.00301113 17.5426 0.00916649 16.9332C0.00301113 16.33 0.218447 15.8129 0.655473 15.3821C1.0925 14.9512 1.6157 14.7358 2.22508 14.7358C2.80983 14.7358 3.3238 14.9512 3.76698 15.3821C4.21016 15.8129 4.43483 16.33 4.44098 16.9332C4.43483 17.3395 4.32711 17.7119 4.11783 18.0504C3.91471 18.3828 3.64695 18.6505 3.31456 18.8537C2.98218 19.0506 2.61901 19.1491 2.22508 19.1491Z" fill="#E4E400"/>
</svg>
