<svg width="24" height="24" viewBox="0 0 24 24" fill="none" xmlns="http://www.w3.org/2000/svg">
<g clip-path="url(#clip0_518_1183)">
<g clip-path="url(#clip1_518_1183)">
<path fill-rule="evenodd" clip-rule="evenodd" d="M3.04481 0.130737C2.27198 0.130737 1.53081 0.437742 0.984338 0.984215C0.437865 1.53069 0.130859 2.27186 0.130859 3.04469V5.48705C0.130859 6.19714 0.706493 6.77277 1.41657 6.77277C2.12666 6.77277 2.70228 6.19714 2.70228 5.48705V3.04469C2.70228 2.95385 2.73837 2.86673 2.80262 2.8025C2.86685 2.73825 2.95397 2.70216 3.04481 2.70216H5.48717C6.19727 2.70216 6.77289 2.12654 6.77289 1.41645C6.77289 0.706371 6.19727 0.130737 5.48717 0.130737H3.04481ZM6.85017 4.70678C5.66669 4.70678 4.70731 5.66618 4.70731 6.84964V10.4033C4.70731 11.5868 5.66669 12.5461 6.85017 12.5461H10.4038C11.5873 12.5461 12.5467 11.5868 12.5467 10.4033V6.84964C12.5467 5.66616 11.5873 4.70678 10.4038 4.70678H6.85017ZM7.27874 9.97471V7.27821H9.97524V9.97471H7.27874ZM17.2275 1.41658C17.2275 0.706503 17.8032 0.130868 18.5132 0.130868H20.9556C21.7284 0.130868 22.4696 0.437874 23.0161 0.984345C23.5625 1.53082 23.8695 2.272 23.8695 3.04483V5.48719C23.8695 6.19726 23.2938 6.7729 22.5838 6.7729C21.8737 6.7729 21.2981 6.19726 21.2981 5.48719V3.04483C21.2981 2.95397 21.2621 2.86685 21.1978 2.80262C21.1335 2.73838 21.0464 2.7023 20.9556 2.7023H18.5132C17.8032 2.7023 17.2275 2.12666 17.2275 1.41658ZM2.70238 18.5131C2.70238 17.8031 2.12676 17.2274 1.41668 17.2274C0.706598 17.2274 0.130964 17.8031 0.130964 18.5131V20.9555C0.130964 21.7283 0.43797 22.4695 0.984443 23.0161C1.53091 23.5624 2.27208 23.8694 3.04492 23.8694H5.48728C6.19737 23.8694 6.77299 23.2938 6.77299 22.5837C6.77299 21.8737 6.19737 21.298 5.48728 21.298H3.04492C2.95408 21.298 2.86696 21.262 2.80272 21.1977C2.73849 21.1334 2.70238 21.0463 2.70238 20.9555V18.5131ZM22.5838 17.2274C23.2938 17.2274 23.8695 17.8031 23.8695 18.5131V20.9555C23.8695 21.7283 23.5625 22.4695 23.0161 23.0161C22.4696 23.5624 21.7284 23.8694 20.9556 23.8694H18.5132C17.8032 23.8694 17.2275 23.2938 17.2275 22.5837C17.2275 21.8737 17.8032 21.298 18.5132 21.298H20.9556C21.0464 21.298 21.1335 21.262 21.1978 21.1977C21.2621 21.1334 21.2981 21.0463 21.2981 20.9555V18.5131C21.2981 17.8031 21.8737 17.2274 22.5838 17.2274ZM7.27882 15.7545C7.27882 15.0445 6.70319 14.4688 5.99311 14.4688C5.28304 14.4688 4.7074 15.0445 4.7074 15.7545V18.0073C4.7074 18.7173 5.28304 19.293 5.99311 19.293H8.24584C8.95591 19.293 9.53155 18.7173 9.53155 18.0073C9.53155 17.2972 8.95591 16.7216 8.24584 16.7216H7.27882V15.7545ZM9.78177 15.7545C9.78177 15.0445 10.3574 14.4688 11.0675 14.4688H12.0001C12.7102 14.4688 13.2858 15.0445 13.2858 15.7545V18.0073C13.2858 18.7173 12.7102 19.293 12.0001 19.293C11.29 19.293 10.7144 18.7173 10.7144 18.0073V16.9912C10.176 16.8377 9.78177 16.3422 9.78177 15.7545ZM17.0404 5.99263C17.0404 5.28254 16.4648 4.70692 15.7547 4.70692C15.0446 4.70692 14.469 5.28254 14.469 5.99263V8.24536C14.469 8.95543 15.0446 9.53107 15.7547 9.53107H18.0073C18.7176 9.53107 19.293 8.95543 19.293 8.24536C19.293 7.53526 18.7176 6.95964 18.0073 6.95964H17.0404V5.99263ZM14.469 12C14.469 11.2899 15.0446 10.7143 15.7547 10.7143H18.0073C18.7176 10.7143 19.293 11.2899 19.293 12V13.0955C19.293 13.8055 18.7176 14.3812 18.0073 14.3812C17.3619 14.3812 16.8276 13.9056 16.7357 13.2857H15.7547C15.0446 13.2857 14.469 12.7101 14.469 12ZM17.0404 15.7545C17.0404 15.0445 16.4648 14.4688 15.7547 14.4688C15.0446 14.4688 14.469 15.0445 14.469 15.7545V18.0073C14.469 18.7173 15.0446 19.293 15.7547 19.293H18.0073C18.7176 19.293 19.293 18.7173 19.293 18.0073C19.293 17.2972 18.7176 16.7216 18.0073 16.7216H17.0404V15.7545Z" fill="white"/>
</g>
</g>
<defs>
<clipPath id="clip0_518_1183">
<rect width="24" height="24" fill="white"/>
</clipPath>
<clipPath id="clip1_518_1183">
<rect width="24" height="24" fill="white"/>
</clipPath>
</defs>
</svg>
