<svg width="20" height="20" viewBox="0 0 20 20" fill="none" xmlns="http://www.w3.org/2000/svg">
<path d="M9.98714 1C12.323 3.06658 15.3716 4.14257 18.4871 4C18.9407 5.54302 19.0795 7.16147 18.8953 8.75918C18.711 10.3569 18.2075 11.9013 17.4145 13.3005C16.6216 14.6998 15.5555 15.9254 14.2796 16.9045C13.0037 17.8836 11.5439 18.5962 9.98714 19C8.43035 18.5962 6.97062 17.8836 5.69468 16.9045C4.41875 15.9254 3.35265 14.6998 2.55973 13.3005C1.76682 11.9013 1.26327 10.3569 1.07901 8.75918C0.894756 7.16147 1.03355 5.54302 1.48714 4C4.60267 4.14257 7.65131 3.06658 9.98714 1Z" stroke="#39A452" stroke-width="2" stroke-linecap="round" stroke-linejoin="round"/>
<path d="M8.9873 9C8.9873 9.26522 9.09266 9.51957 9.2802 9.70711C9.46773 9.89464 9.72209 10 9.9873 10C10.2525 10 10.5069 9.89464 10.6944 9.70711C10.8819 9.51957 10.9873 9.26522 10.9873 9C10.9873 8.73478 10.8819 8.48043 10.6944 8.29289C10.5069 8.10536 10.2525 8 9.9873 8C9.72209 8 9.46773 8.10536 9.2802 8.29289C9.09266 8.48043 8.9873 8.73478 8.9873 9Z" stroke="#39A452" stroke-width="2" stroke-linecap="round" stroke-linejoin="round"/>
<path d="M9.9873 10V12.5" stroke="#39A452" stroke-width="2" stroke-linecap="round" stroke-linejoin="round"/>
</svg>
