<svg width="20" height="20" viewBox="0 0 20 20" fill="none" xmlns="http://www.w3.org/2000/svg">
<path d="M13.3334 8.33337C13.3334 9.21743 12.9822 10.0653 12.3571 10.6904C11.732 11.3155 10.8841 11.6667 10.0001 11.6667C9.11603 11.6667 8.26818 11.3155 7.64306 10.6904C7.01794 10.0653 6.66675 9.21743 6.66675 8.33337" stroke="#5C5B5B" stroke-width="2" stroke-linecap="round" stroke-linejoin="round"/>
<path d="M2.58594 5.02832H17.4143" stroke="#5C5B5B" stroke-width="2" stroke-linecap="round" stroke-linejoin="round"/>
<path d="M2.83333 4.55579C2.61696 4.84429 2.5 5.19518 2.5 5.55579V16.6666C2.5 17.1087 2.67559 17.5326 2.98816 17.8451C3.30072 18.1577 3.72464 18.3333 4.16667 18.3333H15.8333C16.2754 18.3333 16.6993 18.1577 17.0118 17.8451C17.3244 17.5326 17.5 17.1087 17.5 16.6666V5.55579C17.5 5.19518 17.383 4.84429 17.1667 4.55579L15.5 2.33329C15.3448 2.1263 15.1434 1.95829 14.912 1.84258C14.6806 1.72687 14.4254 1.66663 14.1667 1.66663H5.83333C5.57459 1.66663 5.3194 1.72687 5.08798 1.84258C4.85655 1.95829 4.65525 2.1263 4.5 2.33329L2.83333 4.55579Z" stroke="#5C5B5B" stroke-width="2" stroke-linecap="round" stroke-linejoin="round"/>
</svg>
