<svg width="20" height="20" viewBox="0 0 20 20" fill="none" xmlns="http://www.w3.org/2000/svg">
<path d="M6.66634 18.3333C7.12658 18.3333 7.49967 17.9602 7.49967 17.5C7.49967 17.0397 7.12658 16.6666 6.66634 16.6666C6.2061 16.6666 5.83301 17.0397 5.83301 17.5C5.83301 17.9602 6.2061 18.3333 6.66634 18.3333Z" stroke="white" stroke-width="2" stroke-linecap="round" stroke-linejoin="round"/>
<path d="M15.8333 18.3333C16.2936 18.3333 16.6667 17.9602 16.6667 17.5C16.6667 17.0397 16.2936 16.6666 15.8333 16.6666C15.3731 16.6666 15 17.0397 15 17.5C15 17.9602 15.3731 18.3333 15.8333 18.3333Z" stroke="white" stroke-width="2" stroke-linecap="round" stroke-linejoin="round"/>
<path d="M1.70801 1.70837H3.37467L5.59134 12.0584C5.67266 12.4374 5.88357 12.7763 6.18777 13.0166C6.49197 13.2569 6.87043 13.3837 7.25801 13.375H15.408C15.7873 13.3744 16.1551 13.2444 16.4505 13.0066C16.746 12.7687 16.9515 12.4371 17.033 12.0667L18.408 5.87504H4.26634" stroke="white" stroke-width="2" stroke-linecap="round" stroke-linejoin="round"/>
</svg>
