<svg width="24" height="24" viewBox="0 0 24 24" fill="none" xmlns="http://www.w3.org/2000/svg">
<path fill-rule="evenodd" clip-rule="evenodd" d="M9.53409 3.89452C11.5896 2.86679 14.301 3.65642 14.9197 6.09872C15.8601 9.81151 15.8601 14.1887 14.9197 17.9015C14.301 20.3438 11.5896 21.1334 9.53409 20.1057L3.59934 17.1383C2.15951 16.4184 1.25 14.9468 1.25 13.337V10.6632C1.25 9.05343 2.15951 7.58182 3.59934 6.8619L9.53409 3.89452ZM13.4656 6.46704C13.1349 5.16171 11.6073 4.53498 10.2049 5.23617L4.27016 8.20354C3.33851 8.66937 2.75 9.62159 2.75 10.6632V13.337C2.75 14.3786 3.33851 15.3308 4.27016 15.7967L10.2049 18.764C11.6073 19.4652 13.1349 18.8385 13.4656 17.5332C14.3448 14.0621 14.3448 9.9381 13.4656 6.46704ZM17.3063 8.62574C17.6402 8.38069 18.1096 8.45276 18.3547 8.78671C19.0137 9.68477 19.3141 10.8669 19.3141 12.0001C19.3141 13.1333 19.0137 14.3154 18.3547 15.2135C18.1096 15.5474 17.6402 15.6195 17.3063 15.3744C16.9723 15.1294 16.9003 14.66 17.1453 14.3261C17.5718 13.7449 17.8141 12.8969 17.8141 12.0001C17.8141 11.1033 17.5718 10.2553 17.1453 9.67412C16.9003 9.34017 16.9723 8.87079 17.3063 8.62574ZM20.7826 6.02699C20.5213 5.70557 20.0489 5.65682 19.7275 5.91809C19.4061 6.17937 19.3573 6.65173 19.6186 6.97315C20.689 8.28992 21.25 10.1246 21.25 12.0001C21.25 13.8755 20.689 15.7102 19.6186 17.027C19.3573 17.3484 19.4061 17.8208 19.7275 18.082C20.0489 18.3433 20.5213 18.2946 20.7826 17.9731C22.1114 16.3384 22.75 14.1489 22.75 12.0001C22.75 9.85126 22.1114 7.6617 20.7826 6.02699Z" fill="#39A452"/>
</svg>
